# xmcd
#
# Track frame offsets:
#      150
#      18000
#      36207
#      53785
#      72412
#      90705
#      110115
#      128887
#      148965
#      167862
#      185040
# 
# Disc length: 2690 seconds
#
# Revision: 3
# Processed by: cddbd v1.4PL0 Copyright (c) Steve Scherf et al.
#
# Submitted via: FreeRIP 1.21
#
DISCID=a30a800b
DTITLE=Jane Roman Pitt - Peace of the River
DYEAR=1997
DGENRE=Folk
TTITLE0=I Forgot About The Stars
TTITLE1=Child Of The Circled Heart
TTITLE2=Here Comes The Sun
TTITLE3=Sunshine Switch 
TTITLE4=Look To Today
TTITLE5=She Walks Like A Whisper
TTITLE6=Where The Sky Meets The Future
TTITLE7=Sunny Side Of The Street
TTITLE8=Where Or When
TTITLE9=Peace Of The River
TTITLE10=Going Beyond
EXTD=YEAR: 1992 ID3G:   0
EXTT0=
EXTT1=
EXTT2=
EXTT3=
EXTT4=
EXTT5=
EXTT6=
EXTT7=
EXTT8=
EXTT9=
EXTT10=
PLAYORDER=
